<svg height="512" viewBox="0 0 60 60" width="512" xmlns="http://www.w3.org/2000/svg"><g id="Page-1" fill="none" fill-rule="evenodd"><g id="037---Brain-Wired" fill="rgb(0,0,0)" fill-rule="nonzero"><path id="Shape" d="m31.188 25.755c-.5423236-.1037324-1.0660876.2517109-1.17.794-.3727351 1.9642231-1.8254347 3.5480704-3.7502069 4.0887701-1.9247721.5406996-3.9897359-.054979-5.3307931-1.5377701-.2368486-.2752738-.6043131-.4005132-.9599745-.3271789-.3556614.0733344-.6436143.3337152-.7522562.6802263-.1086419.346511-.0208957.7246851.2292307.9879526 1.1113251 1.2230132 2.60606 2.0310447 4.238 2.291-.7070159 1.243741-2.0293574 2.0100112-3.46 2.005-.5522847 0-1 .4477153-1 1s.4477153 1 1 1c2.5340682.0086733 4.7952803-1.5893891 5.633-3.981 3.0718391-.4444391 5.5260925-2.7839441 6.117-5.831.1037324-.5423236-.2517109-1.0660876-.794-1.17z"/><path id="Shape" d="m20.5 21.737c0-.5522847-.4477153-1-1-1-3.0359672.0038566-5.4961434 2.4640328-5.5 5.5 0 .5522847.4477153 1 1 1s1-.4477153 1-1c0-1.9329966 1.5670034-3.5 3.5-3.5.5522847 0 1-.4477153 1-1z"/><path id="Shape" d="m42 14h8.1c.5133647 2.5149632 2.8476987 4.2326695 5.4015243 3.9746808 2.5538256-.2579888 4.4974552-2.4078572 4.4974552-4.9746808s-1.9436296-4.71669199-4.4974552-4.97468077c-2.5538256-.25798877-4.8881596 1.45971755-5.4015243 3.97468077h-8.1c-1.8551624.0042273-3.4639543 1.2834777-3.886 3.09-1.7582952-1.3064751-3.8894622-2.0141768-6.08-2.019-.169 0-.332.02-.5.028-.7696368-1.2892311-2.0934122-2.1488841-3.5842261-2.3275782-1.4908139-.1786942-2.9802531.3437572-4.0327739 1.4145782-.8830322-.6005623-1.8733652-1.0256213-2.917-1.252v-2.934c0-1.1045695.8954305-2 2-2h12.1c.5133647 2.51496322 2.8476987 4.2326695 5.4015243 3.97468077 2.5538256-.25798878 4.4974552-2.40785718 4.4974552-4.97468077s-1.9436296-4.71669199-4.4974552-4.97468076c-2.5538256-.25798878-4.8881596 1.45971754-5.4015243 3.97468076h-12.1c-2.209139 0-4 1.790861-4 4v2.753c-2.5651198.0801899-4.9535512 1.3261359-6.487 3.384-1.7910594-.5753478-3.74819225-.278864-5.28848334.8011463-1.5402911 1.0800103-2.48602265 2.8189363-2.55551666 4.6988537-2.27710505.8496697-3.55778784 3.2692147-2.98 5.63-2.95501156 4.3910987-1.93742372 10.3293028 2.311 13.486v11.347c-2.51496322.5133647-4.23266954 2.8476987-3.97468076 5.4015243.25798877 2.5538256 2.40785717 4.4974552 4.97468076 4.4974552s4.71669199-1.9436296 4.97468077-4.4974552c.25798873-2.5538256-1.45971755-4.8881596-3.97468077-5.4015243v-10.176c2.03260574.880653 4.3024766 1.0514921 6.444.485 1.0723976 2.170859 3.1186592 3.6976372 5.5050181 4.1074619 2.3863589.4098248 4.8247594-.3467735 6.5599819-2.0354619.9333382.3046088 1.901253.4907333 2.881.554.481 2 1.839 3.3 4.61 4.413v4.552c0 2.209139 1.790861 4 4 4h9.1c.5133647 2.5149632 2.8476987 4.2326695 5.4015243 3.9746808 2.5538256-.2579888 4.4974552-2.4078572 4.4974552-4.9746808s-1.9436296-4.716692-4.4974552-4.9746808c-2.5538256-.2579887-4.8881596 1.4597176-5.4015243 3.9746808h-9.1c-1.1045695 0-2-.8954305-2-2v-3.791c.7422311.3389851 1.4010521.8366852 1.93 1.458.7025204.8374387 1.736945 1.3246783 2.83 1.333.4756036.0000328.9463263-.0958803 1.384-.282 1.3256315-.5661806 2.1857276-1.8685218 2.186-3.31.0006778-.3758518-.0594315-.7493398-.178-1.106-.2976951-.9420725-.7002161-1.8477447-1.2-2.7 2.1853209-1.4935351 3.7104745-3.7723108 4.258-6.362 2.1222584-2.4989783 2.3831354-6.0841154.645-8.864.051-.123.088-.25.128-.376h4.117c.5133647 2.5149632 2.8476987 4.2326695 5.4015243 3.9746808 2.5538256-.2579888 4.4974552-2.4078572 4.4974552-4.9746808s-1.9436296-4.716692-4.4974552-4.9746808c-2.5538256-.2579887-4.8881596 1.4597176-5.4015243 3.9746808h-3.927c-.2264845-2.1516324-1.8445007-3.8963043-3.973-4.284-.2971468-1.7750492-1.0558506-3.440749-2.2-4.83v-.886c0-1.1045695.8954305-2 2-2zm13-4c1.6568542 0 3 1.3431458 3 3s-1.3431458 3-3 3-3-1.3431458-3-3 1.3431458-3 3-3zm-15-8c1.6568542 0 3 1.34314575 3 3s-1.3431458 3-3 3-3-1.34314575-3-3 1.3431458-3 3-3zm-32 53c0 1.6568542-1.34314575 3-3 3s-3-1.3431458-3-3 1.34314575-3 3-3c.79564947 0 1.55871121.3160705 2.12132034.8786797.56260914.5626091.87867966 1.3256708.87867966 2.1213203zm42-3c1.6568542 0 3 1.3431458 3 3s-1.3431458 3-3 3-3-1.3431458-3-3 1.3431458-3 3-3zm5-28c1.6568542 0 3 1.3431458 3 3s-1.3431458 3-3 3-3-1.3431458-3-3 1.3431458-3 3-3zm-10.775 2.515c.0009301.4980496-.1268686.987887-.371 1.422-.2990226.5246437-.7531489.9438372-1.3 1.2-.5000938.2344449-.7154449.8299062-.481 1.33s.8299062.7154449 1.33.481c.4154984-.197414.8009836-.4526085 1.145-.758.8548985 1.993036.4696955 4.3015192-.986 5.909l-.019.022c-1.7074612 1.8466366-4.4283955 2.3456104-6.68 1.225-.2931605-.1471814-.5720238-.3212617-.833-.52.9843085-1.2453158 1.1589593-2.9477708.448-4.367-.1546081-.3280274-.4746861-.546648-.8364819-.5713361-.3617957-.0246881-.7086048.1484257-.9063398.45241-.1977351.3039844-.2154051.6911958-.0461783 1.0119261.4676289.937303.1768406 2.0757627-.683 2.674-.5042423.3368072-1.1277864.4436532-1.7153957.2939378-.5876093-.1497155-1.0840047-.541908-1.3656043-1.0789378-.2471474-.4940187-.8479813-.6941474-1.342-.447-.4940187.2471475-.6941474.8479813-.447 1.342.9607821 1.9581722 3.2968302 2.8076442 5.291 1.924.4613613.4201343.9749205.779088 1.528 1.068 1.944257 1.0055857 4.2317064 1.1079324 6.258.28-1.2409396 2.0678243-3.3276148 3.48612-5.707 3.879-.5166678.0807485-.8838748.5459375-.8424439 1.0672335.041431.5212959.4775075.9226424 1.0004439.9207665.0536013.000104.1071186-.0042443.16-.013.8187027-.1327369 1.6180142-.3654776 2.38-.693.4381163.7429309.7884635 1.5342323 1.044 2.358.0525307.1559508.0792158.3194398.079.484-.0006418.6403597-.3830274 1.218659-.972 1.47-.6745984.2655791-1.4435103.0632339-1.9-.5-.9390993-1.1014231-2.1683312-1.917331-3.548-2.355-2.913-.976-4.014-1.867-4.45-3.039.7413472-.0739807 1.4739788-.2182971 2.188-.431.5279842-.1623717.8243717-.7220158.662-1.25-.1623718-.5279842-.7220158-.8243717-1.25-.662-.7182269.220184-1.4594627.3567539-2.209.407-1.4489557.1145714-2.9048452-.1057795-4.255-.644-.3963885-.1341952-.8346294-.0252208-1.122.279-1.3050608 1.5201897-3.324531 2.2246855-5.2919774 1.8461158-1.9674464-.3785696-3.5812827-1.7821745-4.2290226-3.6781158v-.011l-.005-.008c-.538137-1.5624479-.358042-3.2828679.492-4.7.2858073-.4741365.1331364-1.0901926-.341-1.376-.4741365-.2858073-1.0901926-.1331364-1.376.341-.3236163.5439341-.5772875 1.1265379-.755 1.734-.035 0-.069.016-.1.016-1.1621944-.0055076-2.10111467-.9497931-2.1-2.112v-.031c-.00050811-.2636004-.10654499-.5160217-.29443601-.7009065s-.44198971-.2868368-.70556399-.2830935c-.55516098.0071239-1.00114187.4597945-1 1.015.00248444 2.1813321 1.71250239 3.9788066 3.891 4.09 0 .063-.012.125-.012.188.0003006.5016445.0498719 1.0020466.148 1.494-2.97231408.7278066-6.09782158-.3236579-8.02585336-2.7000095s-2.31284566-5.6514536-.98814664-8.4099905c.32802019.3808134.71289044.7086783 1.141.972.47303189.2852551 1.08774493.1330319 1.373-.34s.13303189-1.0877449-.34-1.373c-.57987566-.350739-1.01860284-.893487-1.24-1.534-.47414247-1.3412091.10386345-2.8275206 1.35955433-3.4960215 1.25569087-.6685009 2.81148107-.3181733 3.65944567.8240215.32943786.4434846.95601534.5359378 1.3995.2065.4434846-.3294379.5359378-.9560153.2065-1.3995-.85512625-1.1589087-2.18378159-1.8745925-3.622-1.951.14235012-1.1012789.73953966-2.0925622 1.6465708-2.733166s2.0409458-.8719378 3.1264292-.637834c-.1415504.3429794-.2598185.6951111-.354 1.054-.1050601.350945-.0098168.7312457.2482503.9912484s.6376456.358085.9893658.2556501c.3517203-.1024349.6192774-.3889887.6973839-.7468985.5145723-2.0138766 1.9857711-3.6463869 3.9354524-4.3669603 1.9496814-.7205735 4.1289538-.4372236 5.8295476.7579603-.2173722.5541817-.3306018 1.1437215-.334 1.739 0 .5522847.4477153 1 1 1s1-.4477153 1-1c-.0194104-1.0415368.5251344-2.0123716 1.4240357-2.538824.8989014-.5264524 2.0120272-.5264524 2.9109286 0 .8989013.5264524 1.4434461 1.4972872 1.4240357 2.538824 0 .5522847.4477153.9999999 1 .9999999s1-.4477152 1-.9999999c-.0081697-.1832126-.0265314-.3658284-.055-.547 3.8948675.1030371 7.2028428 2.8814544 7.977 6.7-.6377777.1517245-1.2379744.4317483-1.764.823-.2858125.2143594-.4355547.5649147-.3928203.9196152.0427344.3547006.2714531.6596589.6.8.3285469.1403412.7070078.0947442.9928203-.1196152.8731487-.6571338 2.043214-.762852 3.0200078-.2728649.9767937.4899871 1.5916546 1.4910741 1.5869922 2.5838649z"/></g></g></svg>