<?xml version="1.0" encoding="UTF-8"?>
<svg xmlns="http://www.w3.org/2000/svg" xmlns:xlink="http://www.w3.org/1999/xlink" version="1.1" id="Capa_1" x="0px" y="0px" viewBox="0 0 512 512" style="enable-background:new 0 0 512 512;" xml:space="preserve" width="512" height="512">
<g>
	<path style="fill:none;stroke:#000000;stroke-width:30;stroke-miterlimit:10;" d="M184.939,257.333&#10;&#9;&#9;c-18.518-63.917-2.587-135.701,47.793-186.081L256,47.984l23.268,23.268c50.38,50.38,66.311,122.164,47.793,186.081"/>
	<path style="fill:none;stroke:#000000;stroke-width:30;stroke-miterlimit:10;" d="M89.185,254.333&#10;&#9;&#9;c-17.784-35.436-24.589-76.747-16.839-118.743l5.972-32.359l32.359,5.972c28.933,5.339,55.096,17.016,77.322,33.332"/>
	<path style="fill:none;stroke:#000000;stroke-width:30;stroke-miterlimit:10;" d="M423.313,253.333&#10;&#9;&#9;c17.413-35.212,24.018-76.142,16.34-117.743l-5.972-32.359l-32.359,5.972c-30.245,5.581-57.464,18.088-80.322,35.58"/>
	<path style="fill:none;stroke:#000000;stroke-width:30;stroke-miterlimit:10;" d="M355.339,255.333&#10;&#9;&#9;c-39.167,0-74.471,16.521-99.339,42.969c-24.868-26.447-60.172-42.969-99.339-42.969H15v78.557&#10;&#9;&#9;c0,75.298,61.041,136.339,136.339,136.339h69.454L256,435.021l35.208,35.208h69.454C435.959,470.229,497,409.188,497,333.89&#10;&#9;&#9;v-78.557H355.339z"/>
	<path style="fill:none;stroke:#000000;stroke-width:30;stroke-miterlimit:10;" d="M192.5,401.333h-51c-33.137,0-60-26.863-60-60&#10;&#9;&#9;v-25h74c33.137,0,60,26.863,60,60L192.5,401.333z"/>
	<path style="fill:none;stroke:#000000;stroke-width:30;stroke-miterlimit:10;" d="M319.5,401.333h51c33.137,0,60-26.863,60-60v-25&#10;&#9;&#9;h-74c-33.137,0-60,26.863-60,60L319.5,401.333z"/>
</g>















</svg>
