<?xml version="1.0" encoding="UTF-8"?>
<svg xmlns="http://www.w3.org/2000/svg" xmlns:xlink="http://www.w3.org/1999/xlink" version="1.1" id="Capa_1" x="0px" y="0px" viewBox="0 0 512 512" style="enable-background:new 0 0 512 512;" xml:space="preserve" width="512" height="512">
<g>
	<line style="fill:none;stroke:#000000;stroke-width:30;stroke-miterlimit:10;" x1="75" y1="98" x2="105" y2="98"/>
	<line style="fill:none;stroke:#000000;stroke-width:30;stroke-miterlimit:10;" x1="135" y1="98" x2="165" y2="98"/>
	<path style="fill:none;stroke:#000000;stroke-width:30;stroke-miterlimit:10;" d="M154.575,143c0,0-7.923,22-34.575,22&#10;&#9;&#9;s-34.575-22-34.575-22"/>
	<circle style="fill:none;stroke:#000000;stroke-width:30;stroke-miterlimit:10;" cx="120" cy="120" r="105"/>
	<line style="fill:none;stroke:#000000;stroke-width:30;stroke-miterlimit:10;" x1="165" y1="362" x2="135" y2="362"/>
	<line style="fill:none;stroke:#000000;stroke-width:30;stroke-miterlimit:10;" x1="165" y1="422" x2="75" y2="422"/>
	<line style="fill:none;stroke:#000000;stroke-width:30;stroke-miterlimit:10;" x1="105" y1="362" x2="75" y2="362"/>
	<circle style="fill:none;stroke:#000000;stroke-width:30;stroke-miterlimit:10;" cx="120" cy="392" r="105"/>
	
		<line style="fill:none;stroke:#000000;stroke-width:30;stroke-miterlimit:10;" x1="346.393" y1="83.393" x2="367.607" y2="104.607"/>
	
		<line style="fill:none;stroke:#000000;stroke-width:30;stroke-miterlimit:10;" x1="416.393" y1="104.607" x2="437.607" y2="83.393"/>
	<circle style="fill:none;stroke:#000000;stroke-width:30;stroke-miterlimit:10;" cx="392" cy="120" r="105"/>
	<path style="fill:none;stroke:#000000;stroke-width:30;stroke-miterlimit:10;" d="M357.425,170c0,0,7.923-22,34.575-22&#10;&#9;&#9;s34.575,22,34.575,22"/>
	<line style="fill:none;stroke:#000000;stroke-width:30;stroke-miterlimit:10;" x1="437" y1="370" x2="407" y2="370"/>
	<line style="fill:none;stroke:#000000;stroke-width:30;stroke-miterlimit:10;" x1="377" y1="370" x2="347" y2="370"/>
	<circle style="fill:none;stroke:#000000;stroke-width:30;stroke-miterlimit:10;" cx="392" cy="392" r="105"/>
	<path style="fill:none;stroke:#000000;stroke-width:30;stroke-miterlimit:10;" d="M426.575,442c0,0-7.923-22-34.575-22&#10;&#9;&#9;s-34.575,22-34.575,22"/>
</g>















</svg>
