<?xml version="1.0" encoding="UTF-8" standalone="no"?>
<!-- Created with Inkscape (http://www.inkscape.org/) -->

<svg
   version="1.1"
   id="svg75"
   xml:space="preserve"
   width="682.66669"
   height="682.66669"
   viewBox="0 0 682.66669 682.66669"
   xmlns="http://www.w3.org/2000/svg"
   xmlns:svg="http://www.w3.org/2000/svg"><defs
     id="defs79"><clipPath
       clipPathUnits="userSpaceOnUse"
       id="clipPath89"><path
         d="M 0,512 H 512 V 0 H 0 Z"
         id="path87" /></clipPath></defs><g
     id="g81"
     transform="matrix(1.3333333,0,0,-1.3333333,0,682.66667)"><g
       id="g83"><g
         id="g85"
         clip-path="url(#clipPath89)"><g
           id="g91"
           transform="translate(384.5332,239.9331)"><path
             d="m 0,0 c 62.073,0 112.467,-50.393 112.467,-112.466 0,-62.074 -50.395,-112.467 -112.467,-112.467 -44.828,0 -83.564,26.285 -101.628,64.266 h -53.81 c -18.064,-37.981 -56.801,-64.266 -101.628,-64.266 -62.073,0 -112.467,50.393 -112.467,112.467 0,62.073 50.394,112.466 112.467,112.466 z"
             style="fill:none;stroke:#000000;stroke-width:30;stroke-linecap:round;stroke-linejoin:round;stroke-miterlimit:10;stroke-dasharray:none;stroke-opacity:1"
             id="path93" /></g><g
           id="g95"
           transform="translate(127.4668,95.3335)"><path
             d="M 0,0 V 64.267"
             style="fill:none;stroke:#000000;stroke-width:30;stroke-linecap:round;stroke-linejoin:round;stroke-miterlimit:10;stroke-dasharray:none;stroke-opacity:1"
             id="path97" /></g><g
           id="g99"
           transform="translate(95.3335,127.4668)"><path
             d="M 0,0 H 64.267"
             style="fill:none;stroke:#000000;stroke-width:30;stroke-linecap:round;stroke-linejoin:round;stroke-miterlimit:10;stroke-dasharray:none;stroke-opacity:1"
             id="path101" /></g><g
           id="g103"
           transform="translate(384.5332,182.6333)"><path
             d="m 0,0 c 8.279,0 15,-6.72 15,-15 0,-8.28 -6.721,-15 -15,-15 -8.278,0 -15,6.72 -15,15 0,8.28 6.722,15 15,15"
             style="fill:#000000;fill-opacity:1;fill-rule:evenodd;stroke:none"
             id="path105" /></g><g
           id="g107"
           transform="translate(344.3667,142.4668)"><path
             d="m 0,0 c 8.278,0 15,-6.72 15,-15 0,-8.28 -6.722,-15 -15,-15 -8.278,0 -15,6.72 -15,15 0,8.28 6.722,15 15,15"
             style="fill:#000000;fill-opacity:1;fill-rule:evenodd;stroke:none"
             id="path109" /></g><g
           id="g111"
           transform="translate(384.5332,102.2998)"><path
             d="m 0,0 c 8.279,0 15,-6.72 15,-15 0,-8.28 -6.721,-15 -15,-15 -8.278,0 -15,6.72 -15,15 0,8.28 6.722,15 15,15"
             style="fill:#000000;fill-opacity:1;fill-rule:evenodd;stroke:none"
             id="path113" /></g><g
           id="g115"
           transform="translate(424.7002,142.4668)"><path
             d="m 0,0 c 8.278,0 15,-6.72 15,-15 0,-8.28 -6.722,-15 -15,-15 -8.279,0 -15,6.72 -15,15 0,8.28 6.721,15 15,15"
             style="fill:#000000;fill-opacity:1;fill-rule:evenodd;stroke:none"
             id="path117" /></g><g
           id="g119"
           transform="translate(256,239.9331)"><path
             d="m 0,0 v 32.134 c 0,8.523 3.385,16.693 9.412,22.718 6.026,6.033 14.199,9.415 22.721,9.415 h 32.134 c 8.522,0 16.695,3.382 22.721,9.415 6.027,6.025 9.412,14.195 9.412,22.718 0,8.523 -3.385,16.694 -9.412,22.719 -6.026,6.032 -14.199,9.415 -22.721,9.415 H -64.267 c -8.522,0 -16.695,3.382 -22.721,9.415 -6.027,6.025 -9.412,14.195 -9.412,22.718 0,8.523 3.385,16.693 9.412,22.718 6.026,6.033 14.199,9.415 22.721,9.415 h 24.1 C -17.983,192.8 0,210.787 0,232.967 v 24.1"
             style="fill:none;stroke:#000000;stroke-width:30;stroke-linecap:round;stroke-linejoin:round;stroke-miterlimit:10;stroke-dasharray:none;stroke-opacity:1"
             id="path121" /></g></g></g></g></svg>
